<svg xmlns="http://www.w3.org/2000/svg" viewBox="0 0 1348.72 1341.88"><defs><style>.cls-1{fill:#fff;}</style></defs><title>アセット 6</title><g id="レイヤー_2" data-name="レイヤー 2"><g id="レイヤー_1-2" data-name="レイヤー 1"><path class="cls-1" d="M731.9,1206.81l-.39,0a545.13,545.13,0,0,1-121.7-1l-.4,0-47.68,134.32a671.66,671.66,0,0,1-105.3-26.64l20.24-141.37-.36-.15A538.23,538.23,0,0,1,370,1115.31l-.33-.22L265.5,1211.46a680.08,680.08,0,0,1-81.12-73l83-114.89-.26-.29a542.25,542.25,0,0,1-67.87-98.59l-.18-.35L63.33,960.92A670.86,670.86,0,0,1,25.11,858.28L150.3,796l-.09-.38a541.43,541.43,0,0,1-14.6-118.83v-.4L.52,646.09a678.05,678.05,0,0,1,13.5-109L151.41,540l.1-.39a537.07,537.07,0,0,1,42.07-112.95l.18-.36L89.89,338.18a678.58,678.58,0,0,1,62.57-90.44l118.29,65.34.27-.3a543.17,543.17,0,0,1,90.48-81.56l.32-.23L311.48,106.36a674.87,674.87,0,0,1,97.08-51.44L482,166.35l.38-.14A536.52,536.52,0,0,1,602,135.69l.4-.06L615.66,3C635.11,1.35,654.87.5,674.4.5c16.89,0,34,.64,50.84,1.89l13.18,132.07.4,0A537.22,537.22,0,0,1,860.4,163.45l.37.14L934.11,52.33a674.71,674.71,0,0,1,97,50.09L981.17,226l.33.23a543.38,543.38,0,0,1,94.6,83.2l.26.3,117.52-64.92a677.13,677.13,0,0,1,62.43,89l-102.72,87.15.18.36a536.14,536.14,0,0,1,44.82,118.18l.09.39,136.06-2.91a677.93,677.93,0,0,1,13.46,107.45l-133.65,29.92v.4a541.58,541.58,0,0,1-15.58,125l-.1.39,123.86,61.66a672.22,672.22,0,0,1-38.14,101.09l-134.64-36.26-.19.35A541.37,541.37,0,0,1,1078,1029l-.26.3L1160,1143.16a679.54,679.54,0,0,1-81,71.56l-103.85-96-.32.22a538.67,538.67,0,0,1-109.67,56.43l-.38.14L884.89,1316a673.67,673.67,0,0,1-105.23,25.33ZM676.42,467.28c-111.93,0-203,91.06-203,203s91.07,203,203,203,203-91.07,203-203S788.36,467.28,676.42,467.28Z"/><path d="M674.4,1c16.75,0,33.69.63,50.39,1.86l13.1,131.25.07.8.8.1a536.25,536.25,0,0,1,121.47,28.91l.74.27.44-.66L934.3,53a673,673,0,0,1,96.15,49.67L980.86,225.41l-.3.74.66.45a542.33,542.33,0,0,1,94.5,83.13l.54.59.69-.39,116.81-64.53a678.2,678.2,0,0,1,61.91,88.23l-102.1,86.62-.61.52.37.71a535.81,535.81,0,0,1,44.77,118.07l.19.77h.8l135.24-2.9A676.35,676.35,0,0,1,1347.68,644l-132.85,29.75-.78.17v.8a541.17,541.17,0,0,1-15.58,124.85l-.19.77.72.36L1322.12,862a670.79,670.79,0,0,1-37.81,100.24l-133.86-36.05-.76-.2-.37.69a541.22,541.22,0,0,1-71.69,102.06l-.53.6.47.65,81.73,113.16a678.88,678.88,0,0,1-80.27,71l-103.26-95.49-.58-.53-.65.44A537.66,537.66,0,0,1,865,1174.86l-.75.29.11.79,20,139.71A672.26,672.26,0,0,1,780,1340.77L732.51,1207l-.27-.74-.78.08a544.14,544.14,0,0,1-121.59-1l-.79-.1-.27.76L561.4,1339.56A671.68,671.68,0,0,1,457,1313.16l20.12-140.58.11-.78-.73-.29a538.84,538.84,0,0,1-106.17-56.61l-.66-.45-.59.54-103.6,95.82A680.32,680.32,0,0,1,185,1138.45l82.51-114.23.46-.64-.52-.6a540.88,540.88,0,0,1-67.8-98.5l-.38-.7-.77.21L63.6,960.33A671.09,671.09,0,0,1,25.7,858.55l124.47-62,.71-.35-.19-.78a541.55,541.55,0,0,1-14.58-118.72v-.79l-.77-.17L1,645.7a678.22,678.22,0,0,1,13.4-108.12L151,540.5l.8,0,.2-.78a536.53,536.53,0,0,1,42-112.85l.36-.7-.6-.51L90.53,338.07a677.5,677.5,0,0,1,62.06-89.69l117.57,64.95.7.38.53-.6a542.6,542.6,0,0,1,90.4-81.48l.64-.46-.29-.73-50-123.88a673.9,673.9,0,0,1,96.28-51l73,110.75.45.67.75-.29A537.17,537.17,0,0,1,602.1,136.18l.78-.1.08-.79L616.11,3.49C635.42,1.84,655,1,674.4,1m2,872.78a202.9,202.9,0,1,0-79.21-16,202.23,202.23,0,0,0,79.21,16M674.4,0q-29.92,0-59.2,2.57L602,135.19a536.3,536.3,0,0,0-119.76,30.55L408.75,54.3a672.56,672.56,0,0,0-97.89,51.86l50.35,124.65a543.35,543.35,0,0,0-90.57,81.64L152.34,247.1a677,677,0,0,0-63.09,91.19l103.89,88.15A535.67,535.67,0,0,0,151,539.5L13.62,536.56A676.12,676.12,0,0,0,0,646.49l135.11,30.25a541.11,541.11,0,0,0,14.61,118.94L24.51,858A671.14,671.14,0,0,0,63.05,961.51L198.79,925a541.34,541.34,0,0,0,67.94,98.67l-83,114.9a677.33,677.33,0,0,0,81.79,73.58l104.22-96.39a538.18,538.18,0,0,0,106.37,56.72l-20.24,141.39a670.06,670.06,0,0,0,106.19,26.86l47.68-134.34a545.46,545.46,0,0,0,121.82,1l47.75,134.53a670.19,670.19,0,0,0,106.12-25.54L865.32,1175.8a539,539,0,0,0,109.78-56.48l103.86,96a677.9,677.9,0,0,0,81.64-72.17l-82.22-113.84a541.54,541.54,0,0,0,71.81-102.24l134.67,36.26a670.4,670.4,0,0,0,38.45-101.94l-123.87-61.67a540.94,540.94,0,0,0,15.61-125.08l133.67-29.94a675.1,675.1,0,0,0-13.58-108.35l-136.07,2.91A536.38,536.38,0,0,0,1154.22,421L1257,333.85a677.27,677.27,0,0,0-63-89.72l-117.53,64.93a543.07,543.07,0,0,0-94.68-83.28l49.91-123.56a672.22,672.22,0,0,0-97.78-50.51L860.57,163a536.9,536.9,0,0,0-121.69-29L725.7,1.92Q700.31,0,674.4,0Zm2,872.78c-111.83,0-202.5-90.67-202.5-202.5s90.67-202.5,202.5-202.5,202.5,90.66,202.5,202.5-90.66,202.5-202.5,202.5Z"/></g></g></svg>