<svg xmlns="http://www.w3.org/2000/svg" viewBox="0 0 1849.64 1848.25"><defs><style>.cls-1{fill:#fff;}</style></defs><title>レイヤー 2</title><g id="レイヤー_2" data-name="レイヤー 2"><g id="レイヤー_1-2" data-name="レイヤー 1"><g id="レイヤー_2-2" data-name="レイヤー 2"><g id="レイヤー_1-2-2" data-name="レイヤー 1-2"><path class="cls-1" d="M837.92,1716.55l-.42-.07c-16.38-1.77-32.86-4.1-48.94-6.86-15.09-2.59-30.46-5.68-45.71-9.2l-.41-.07-53.27,116.59a927.86,927.86,0,0,1-108-35.61l26.82-125-.39-.16a794.79,794.79,0,0,1-86.07-43.38l-.36-.21-85,95.37a926.49,926.49,0,0,1-92.58-66l62.26-111.2-.32-.28A803.78,803.78,0,0,1,336,1463.38l-.29-.31-108.85,65.8a933.27,933.27,0,0,1-69.09-90.31L249.71,1351l-.22-.36a803.82,803.82,0,0,1-46.91-84.74l-.19-.38L79.24,1296.32a926.61,926.61,0,0,1-39.5-106.57l113.43-56.48-.11-.42a793,793,0,0,1-19.83-95.16l-.06-.41L6.66,1030.49A920.82,920.82,0,0,1,.54,917l124.93-20.53v-.42a810.85,810.85,0,0,1,9.29-96.77l.07-.42L16.06,755A932.7,932.7,0,0,1,43.44,644.79L168.82,662l.13-.4a799.46,799.46,0,0,1,37.31-89.9l.19-.38L105.81,494.35a920.76,920.76,0,0,1,58.73-97.15l114.92,53.46.24-.34A804.22,804.22,0,0,1,342,375.6l.29-.3L268.71,272a930.13,930.13,0,0,1,84.81-75.5l94.27,85.14.35-.25a802.71,802.71,0,0,1,81.38-53l.37-.21-40-120.72a928.73,928.73,0,0,1,103.22-47.3l65.19,109.48.4-.14A798.71,798.71,0,0,1,752,142.87l.41-.08L749.79,15.12A920.5,920.5,0,0,1,862.34.53L892.5,124.89l.43,0a801.91,801.91,0,0,1,96.68,2.28l.42.07L1025.24,4.06c18.77,2.06,37.64,4.71,56.08,7.87,18.93,3.24,38,7.13,56.77,11.54l-8,128.19.41.07A800.28,800.28,0,0,1,1222,182.21l.39.16,70.35-107.71a918.75,918.75,0,0,1,101.19,51.4l-45.59,120.66.35.22A801.74,801.74,0,0,1,1426.82,303l.33.27,99.31-82.48a927.58,927.58,0,0,1,81.49,79.1L1528.58,402l.27.32a807.23,807.23,0,0,1,58,76.31l.23.34,119.59-49.66a931.39,931.39,0,0,1,54.72,99.56l-106.22,74.42.17.39a799.59,799.59,0,0,1,33,89.76l.12.4,129.25-12.25a921,921,0,0,1,22.91,111.27l-123.71,39.9,0,.41a794.94,794.94,0,0,1,4.95,95.34V929l127.23,26.36a936.71,936.71,0,0,1-11,113.13l-130,1.69-.07.42a807.64,807.64,0,0,1-23.15,92.45l-.07.4,113.89,62.71a921.32,921.32,0,0,1-43.71,104.94l-124.64-36.7-.2.37a799.92,799.92,0,0,1-49.44,81.58l-.24.34,90.23,93.42a926.41,926.41,0,0,1-72.86,87.3l-108.12-71.71-.29.3a805,805,0,0,1-71.22,63.41l-.33.26,58.55,115.57a932.24,932.24,0,0,1-95.32,62.1l-81.91-100-.37.19a802.58,802.58,0,0,1-86.83,39.86l-.39.15,21.84,127.36a924.25,924.25,0,0,1-109.33,31.31l-48.66-119.38-.42.08a795.06,795.06,0,0,1-95,12.48l-.42,0L963,1846.94a926.27,926.27,0,0,1-113.73-2.48ZM973,633.88c-160.5-27.51-312.9,80.29-340.41,240.79s80.3,312.9,240.79,340.41,312.9-80.3,340.41-240.79A294.83,294.83,0,0,0,973,633.88Z"/><path d="M1081.23,12.43c18.78,3.22,37.71,7.07,56.32,11.44l-7.94,127.33,0,.84.82.22a797.28,797.28,0,0,1,91.43,30.46l.78.31.46-.71,69.9-107a922.3,922.3,0,0,1,100.42,51l-45.3,119.87-.29.78.7.45a794.92,794.92,0,0,1,78.08,56l.66.54.65-.55,98.66-81.92a926.38,926.38,0,0,1,80.82,78.44l-78.86,101.5-.51.68.55.63A806.83,806.83,0,0,1,1586.45,479l.47.71.78-.33L1706.5,430a932.44,932.44,0,0,1,54.28,98.74L1655.3,602.67l-.7.49.34.76a801.38,801.38,0,0,1,33,89.71l.24.81.84-.08,128.41-12.2a919.82,919.82,0,0,1,22.71,110.36l-122.9,39.63-.8.26.1.83a796,796,0,0,1,4.94,95.28v.84l.83.15,126.39,26.19a936,936,0,0,1-11,112.22l-129.24,1.67h-.85l-.14.83a806.09,806.09,0,0,1-23.14,92.39l-.25.81.73.4L1798,1226.36a920.37,920.37,0,0,1-43.36,104.14l-123.83-36.45-.8-.25-.4.75a794.5,794.5,0,0,1-49.37,81.52l-.48.69.58.61,89.61,92.77a923.76,923.76,0,0,1-72.26,86.59l-107.41-71.21-.7-.47-.59.6a805.64,805.64,0,0,1-71.18,63.37l-.66.52.38.75L1475.76,1665a935,935,0,0,1-94.54,61.59l-81.46-99.38-.53-.65-.74.4a803.53,803.53,0,0,1-86.78,39.83l-.78.3.15.83,21.69,126.52a925.61,925.61,0,0,1-108.44,31.06L1076,1707l-.32-.79-.83.16a794.05,794.05,0,0,1-94.94,12.47l-.85.06-.14.83L962.4,1846.44A925.8,925.8,0,0,1,849.68,1844l-11.2-127-.08-.84-.83-.14c-16.38-1.77-32.83-4.1-48.88-6.85-15.08-2.59-30.45-5.68-45.67-9.2l-.82-.14-.35.77L688.92,1816.4a925.22,925.22,0,0,1-107.13-35.32l26.63-124.2.15-.83-.78-.33a793.83,793.83,0,0,1-86-43.35l-.72-.42-.56.63-84.39,94.74a922.19,922.19,0,0,1-91.82-65.47l61.84-110.44.41-.75-.64-.54a804.16,804.16,0,0,1-69.51-67l-.56-.62-.72.44L227,1528.31a931.08,931.08,0,0,1-68.54-89.57l91.33-87,.61-.58-.45-.71a805.58,805.58,0,0,1-46.87-84.69l-.36-.76-.82.2L79.56,1295.74A926.28,926.28,0,0,1,40.33,1190L153,1133.93l.75-.37-.23-.82a798,798,0,0,1-19.81-95.06l-.13-.83-.84,0L7.11,1030A921.46,921.46,0,0,1,1,917.46L125.12,897l.84-.14,0-.84a807.78,807.78,0,0,1,9.28-96.71l.14-.83-.78-.29-118-43.52A934.42,934.42,0,0,1,43.8,645.35l124.53,17.07.83.14.28-.79a796.63,796.63,0,0,1,37.3-89.84l.37-.76-.66-.51-100-76.44a919.08,919.08,0,0,1,58.23-96.38L278.88,451l.76.36.5-.67A799.13,799.13,0,0,1,342.41,376l.57-.61-.48-.69L269.37,272a933.41,933.41,0,0,1,84.12-74.88l93.64,84.57.63.56.68-.49a800.78,800.78,0,0,1,81.34-53l.72-.42-.26-.81L490.55,107.69a931.24,931.24,0,0,1,102.36-46.9l64.78,108.76.43.72.8-.28a796.53,796.53,0,0,1,93.19-26.6l.82-.18v-.84L750.31,15.59A921.29,921.29,0,0,1,861.93,1.1l29.92,123.54.2.81.83,0a802.36,802.36,0,0,1,96.71,2.29l.83.07.24-.81,35-122.36c18.61,2.05,37.33,4.69,55.61,7.82m-208,1203.12c160.27,27.26,312.28-80.57,339.54-240.84S1132.22,662.43,972,635.17,659.67,715.75,632.42,876a294.33,294.33,0,0,0,240.84,339.54M1081.4,11.42q-28.29-4.85-56.54-7.92L989.65,126.68a796.88,796.88,0,0,0-96.75-2.27L862.73,0A918.62,918.62,0,0,0,749.32,14.75L752,142.41A795.71,795.71,0,0,0,658.61,169L593.4,59.54A926.48,926.48,0,0,0,489.3,107.2L529.3,228a804.37,804.37,0,0,0-81.43,53l-94.3-85.16A931.13,931.13,0,0,0,268.07,272l73.61,103.34a795.32,795.32,0,0,0-62.35,74.76L164.41,396.58a919.1,919.1,0,0,0-59.26,97.92l100.67,76.92a796,796,0,0,0-37.33,90L43.08,644.21A929.79,929.79,0,0,0,15.47,755.37l118.76,43.81A806.13,806.13,0,0,0,125,896L0,916.57a918,918,0,0,0,6.18,114.36l126.51,6.88A791.64,791.64,0,0,0,152.56,1133l-113.44,56.5A926.55,926.55,0,0,0,79,1296.91l123.11-30.78a803.4,803.4,0,0,0,47,84.81l-91.95,87.62a931.16,931.16,0,0,0,69.64,91l108.88-65.86a798.85,798.85,0,0,0,69.6,67.11L343,1642.07a919.51,919.51,0,0,0,93.33,66.54l85-95.38a793.1,793.1,0,0,0,86.13,43.4l-26.82,125a923.71,923.71,0,0,0,108.9,35.92L742.73,1701q22.59,5.23,45.72,9.22,24.56,4.2,49,6.86L848.71,1845a925.5,925.5,0,0,0,114.65,2.5L980,1719.88a791.9,791.9,0,0,0,95.07-12.49l48.71,119.4A922.57,922.57,0,0,0,1234,1795.22l-21.87-127.42a800.69,800.69,0,0,0,86.88-39.88l81.9,100.06a933.06,933.06,0,0,0,96.1-62.61l-58.56-115.59a803,803,0,0,0,71.27-63.44l108.12,71.72a923.55,923.55,0,0,0,73.49-88l-90.22-93.39a792.14,792.14,0,0,0,49.45-81.63l124.67,36.71a921,921,0,0,0,44-105.85l-113.89-62.75a806.42,806.42,0,0,0,23.16-92.5l130-1.7a933.81,933.81,0,0,0,11.13-114.06L1722.39,928.5a797.84,797.84,0,0,0-4.94-95.39l123.72-39.89A919.51,919.51,0,0,0,1818.08,681l-129.31,12.24a796.89,796.89,0,0,0-33-89.83L1762,529a928.72,928.72,0,0,0-55.17-100.37l-119.59,49.7a805.38,805.38,0,0,0-58-76.29l79.4-102.13a926.08,926.08,0,0,0-82.15-79.77l-99.33,82.47A797.66,797.66,0,0,0,1349,246.48l45.6-120.67a915.51,915.51,0,0,0-102-51.82l-70.34,107.78a795.74,795.74,0,0,0-91.6-30.52l8-128.17Q1110.39,16.39,1081.4,11.42Zm-208,1203.12c-160.2-27.46-267.81-179.6-240.34-339.8s179.6-267.82,339.8-240.36S1240.71,814,1213.24,974.2,1033.64,1242,873.43,1214.54Z"/></g></g></g></g></svg>